# xmcd
#
# Track frame offsets:
#	150
#	12400
#	24585
#	37332
#	47627
#	59577
#	76240
#	86917
#	101004
#	122017
#	133447
#	144392
#	153770
#	165937
#	179765
#	192587
#	206187
#	218080
#	231992
#
# Disc length: 3253 seconds
#
# Revision: 6
# Processed by: cddbd v1.4PL0 Copyright (c) Steve Scherf et al.
# Submitted via: CDmax 2.0
#
DISCID=1b0cb313
DTITLE=Johnny Winter - Before the storm
DYEAR=1971
DGENRE=Blues
TTITLE0=Parchman Farm
TTITLE1=Livin' in the Blues
TTITLE2=Leavin' Blues
TTITLE3=38-32-20 Blues
TTITLE4=Bad News
TTITLE5=Kind Hearted Woman
TTITLE6=Out of Sight
TTITLE7=Low Down Gal of Mine
TTITLE8=Goin' Down Slow
TTITLE9=Avocado Green
TTITLE10=Stay By My Side
TTITLE11=I Had to Cry
TTITLE12=Kiss Tomorrow Goodbye
TTITLE13=Halem Nocturne
TTITLE14=Easy Lovin' Girl
TTITLE15=Spiders Of The Mind
TTITLE16=My World Turns Arround Her
TTITLE17=Take a Chance On My Love
TTITLE18=Please Come Home For Christmas
EXTD=Johnny Winter-Guitar, Harmonica, Vocals\n\nFrom a Collection of Eleyther
EXTD=otypia Jazz-Blues
EXTT0=(Allison/Ciecley)
EXTT1=(Collins)
EXTT2=(Winter)
EXTT3=(Winter)
EXTT4=(Loudermilk)
EXTT5=(Johnson arr. Winter)
EXTT6=(Wright)
EXTT7=(Winter)
EXTT8=(Oden)
EXTT9=(Leff)
EXTT10=(Ballard/Green)
EXTT11=(Scott/Mathias/Ames)
EXTT12=(Winter/Winter)
EXTT13=(Rodgers/Hagen]\n(instrumental]\nPerformed by: Johnny Winter Band feat
EXTT13=\nJohnny Winter on guitar and Edgar Winter on sax
EXTT14=(Collins)
EXTT15=(Winter)
EXTT16=(Winter)
EXTT17=(instrumental]\n(Collins)
EXTT18=(Brown/Reed)
PLAYORDER=
